# MagicaVoxel @ Ephtracy

# group
o 

# material
mtllib untitled.mtl
usemtl palette

# normals
vn -1 0 0
vn 1 0 0
vn 0 0 1
vn 0 0 -1
vn 0 -1 0
vn 0 1 0

# texcoords
vt 0.0449219 0.5
vt 0.0683594 0.5

# verts
v -0.8 0.3 0.6
v -0.8 0.3 0.5
v -0.8 1.1 0.6
v -0.8 1.1 0.5
v -0.7 0.2 0.6
v -0.7 0.2 0.5
v -0.7 0.3 0.6
v -0.7 0.3 0.5
v -0.7 1.1 0.6
v -0.7 1.1 0.5
v -0.7 1.2 0.6
v -0.7 1.2 0.5
v -0.6 0.1 0.6
v -0.6 0.1 0.5
v -0.6 0.2 0.6
v -0.6 0.2 0.5
v -0.6 0.4 0.7
v -0.6 0.4 0.6
v -0.6 0.4 0.5
v -0.6 0.4 0.4
v -0.6 1 0.7
v -0.6 1 0.6
v -0.6 1 0.5
v -0.6 1 0.4
v -0.6 1.2 0.6
v -0.6 1.2 0.5
v -0.6 1.3 0.6
v -0.6 1.3 0.5
v -0.5 0 0.6
v -0.5 0 0.5
v -0.5 0.1 0.6
v -0.5 0.1 0.5
v -0.5 1.3 0.6
v -0.5 1.3 0.5
v -0.5 1.4 0.6
v -0.5 1.4 0.5
v -0.3 0.8 0.7
v -0.3 0.8 0.6
v -0.3 0.8 0.5
v -0.3 0.8 0.4
v -0.3 1.1 0.7
v -0.3 1.1 0.6
v -0.3 1.1 0.5
v -0.3 1.1 0.4
v 5.96046e-08 0.8 0.7
v 5.96046e-08 0.8 0.6
v 5.96046e-08 0.8 0.5
v 5.96046e-08 0.8 0.4
v 5.96046e-08 0.9 0.7
v 5.96046e-08 0.9 0.6
v 5.96046e-08 0.9 0.5
v 5.96046e-08 0.9 0.4
v 0.1 0.9 0.7
v 0.1 0.9 0.6
v 0.1 0.9 0.5
v 0.1 0.9 0.4
v 0.1 1 0.7
v 0.1 1 0.6
v 0.1 1 0.5
v 0.1 1 0.4
v -0.5 0.9 0.7
v -0.5 0.9 0.6
v -0.5 0.9 0.5
v -0.5 0.9 0.4
v -0.5 1 0.7
v -0.5 1 0.6
v -0.5 1 0.5
v -0.5 1 0.4
v -0.4 0.8 0.7
v -0.4 0.8 0.6
v -0.4 0.8 0.5
v -0.4 0.8 0.4
v -0.4 0.9 0.7
v -0.4 0.9 0.6
v -0.4 0.9 0.5
v -0.4 0.9 0.4
v -0.1 0.8 0.7
v -0.1 0.8 0.6
v -0.1 0.8 0.5
v -0.1 0.8 0.4
v -0.1 1.1 0.7
v -0.1 1.1 0.6
v -0.1 1.1 0.5
v -0.1 1.1 0.4
v 0.1 0 0.6
v 0.1 0 0.5
v 0.1 0.1 0.6
v 0.1 0.1 0.5
v 0.1 1.3 0.6
v 0.1 1.3 0.5
v 0.1 1.4 0.6
v 0.1 1.4 0.5
v 0.2 0.1 0.6
v 0.2 0.1 0.5
v 0.2 0.2 0.6
v 0.2 0.2 0.5
v 0.2 0.4 0.7
v 0.2 0.4 0.6
v 0.2 0.4 0.5
v 0.2 0.4 0.4
v 0.2 1 0.7
v 0.2 1 0.6
v 0.2 1 0.5
v 0.2 1 0.4
v 0.2 1.2 0.6
v 0.2 1.2 0.5
v 0.2 1.3 0.6
v 0.2 1.3 0.5
v 0.3 0.2 0.6
v 0.3 0.2 0.5
v 0.3 0.3 0.6
v 0.3 0.3 0.5
v 0.3 1.1 0.6
v 0.3 1.1 0.5
v 0.3 1.2 0.6
v 0.3 1.2 0.5
v 0.4 0.3 0.6
v 0.4 0.3 0.5
v 0.4 1.1 0.6
v 0.4 1.1 0.5
v -0.6 0.4 0.7
v -0.6 1 0.7
v -0.5 0.9 0.7
v -0.5 1 0.7
v -0.4 0.8 0.7
v -0.4 0.9 0.7
v -0.3 0.8 0.7
v -0.3 1.1 0.7
v -0.1 0.8 0.7
v -0.1 1.1 0.7
v 5.96046e-08 0.8 0.7
v 5.96046e-08 0.9 0.7
v 0.1 0.9 0.7
v 0.1 1 0.7
v 0.2 0.4 0.7
v 0.2 1 0.7
v -0.8 0.3 0.6
v -0.8 1.1 0.6
v -0.7 0.2 0.6
v -0.7 0.3 0.6
v -0.7 1.1 0.6
v -0.7 1.2 0.6
v -0.6 0.1 0.6
v -0.6 0.2 0.6
v -0.6 0.4 0.6
v -0.6 1 0.6
v -0.6 1.2 0.6
v -0.6 1.3 0.6
v -0.5 0 0.6
v -0.5 0.1 0.6
v -0.5 0.9 0.6
v -0.5 1 0.6
v -0.5 1.3 0.6
v -0.5 1.4 0.6
v -0.4 0.8 0.6
v -0.4 0.9 0.6
v -0.3 0.8 0.6
v -0.3 1.1 0.6
v -0.1 0.8 0.6
v -0.1 1.1 0.6
v 5.96046e-08 0.8 0.6
v 5.96046e-08 0.9 0.6
v 0.1 0 0.6
v 0.1 0.1 0.6
v 0.1 0.9 0.6
v 0.1 1 0.6
v 0.1 1.3 0.6
v 0.1 1.4 0.6
v 0.2 0.1 0.6
v 0.2 0.2 0.6
v 0.2 0.4 0.6
v 0.2 1 0.6
v 0.2 1.2 0.6
v 0.2 1.3 0.6
v 0.3 0.2 0.6
v 0.3 0.3 0.6
v 0.3 1.1 0.6
v 0.3 1.2 0.6
v 0.4 0.3 0.6
v 0.4 1.1 0.6
v -0.8 0.3 0.5
v -0.8 1.1 0.5
v -0.7 0.2 0.5
v -0.7 0.3 0.5
v -0.7 1.1 0.5
v -0.7 1.2 0.5
v -0.6 0.1 0.5
v -0.6 0.2 0.5
v -0.6 0.4 0.5
v -0.6 1 0.5
v -0.6 1.2 0.5
v -0.6 1.3 0.5
v -0.5 0 0.5
v -0.5 0.1 0.5
v -0.5 0.9 0.5
v -0.5 1 0.5
v -0.5 1.3 0.5
v -0.5 1.4 0.5
v -0.4 0.8 0.5
v -0.4 0.9 0.5
v -0.3 0.8 0.5
v -0.3 1.1 0.5
v -0.1 0.8 0.5
v -0.1 1.1 0.5
v 5.96046e-08 0.8 0.5
v 5.96046e-08 0.9 0.5
v 0.1 0 0.5
v 0.1 0.1 0.5
v 0.1 0.9 0.5
v 0.1 1 0.5
v 0.1 1.3 0.5
v 0.1 1.4 0.5
v 0.2 0.1 0.5
v 0.2 0.2 0.5
v 0.2 0.4 0.5
v 0.2 1 0.5
v 0.2 1.2 0.5
v 0.2 1.3 0.5
v 0.3 0.2 0.5
v 0.3 0.3 0.5
v 0.3 1.1 0.5
v 0.3 1.2 0.5
v 0.4 0.3 0.5
v 0.4 1.1 0.5
v -0.6 0.4 0.4
v -0.6 1 0.4
v -0.5 0.9 0.4
v -0.5 1 0.4
v -0.4 0.8 0.4
v -0.4 0.9 0.4
v -0.3 0.8 0.4
v -0.3 1.1 0.4
v -0.1 0.8 0.4
v -0.1 1.1 0.4
v 5.96046e-08 0.8 0.4
v 5.96046e-08 0.9 0.4
v 0.1 0.9 0.4
v 0.1 1 0.4
v 0.2 0.4 0.4
v 0.2 1 0.4
v -0.5 0 0.6
v 0.1 0 0.6
v -0.5 0 0.5
v 0.1 0 0.5
v -0.6 0.1 0.6
v -0.5 0.1 0.6
v 0.1 0.1 0.6
v 0.2 0.1 0.6
v -0.6 0.1 0.5
v -0.5 0.1 0.5
v 0.1 0.1 0.5
v 0.2 0.1 0.5
v -0.7 0.2 0.6
v -0.6 0.2 0.6
v 0.2 0.2 0.6
v 0.3 0.2 0.6
v -0.7 0.2 0.5
v -0.6 0.2 0.5
v 0.2 0.2 0.5
v 0.3 0.2 0.5
v -0.8 0.3 0.6
v -0.7 0.3 0.6
v 0.3 0.3 0.6
v 0.4 0.3 0.6
v -0.8 0.3 0.5
v -0.7 0.3 0.5
v 0.3 0.3 0.5
v 0.4 0.3 0.5
v -0.6 0.4 0.7
v 0.2 0.4 0.7
v -0.6 0.4 0.6
v 0.2 0.4 0.6
v -0.6 0.4 0.5
v 0.2 0.4 0.5
v -0.6 0.4 0.4
v 0.2 0.4 0.4
v -0.4 0.8 0.7
v -0.3 0.8 0.7
v -0.1 0.8 0.7
v 5.96046e-08 0.8 0.7
v -0.4 0.8 0.6
v -0.3 0.8 0.6
v -0.1 0.8 0.6
v 5.96046e-08 0.8 0.6
v -0.4 0.8 0.5
v -0.3 0.8 0.5
v -0.1 0.8 0.5
v 5.96046e-08 0.8 0.5
v -0.4 0.8 0.4
v -0.3 0.8 0.4
v -0.1 0.8 0.4
v 5.96046e-08 0.8 0.4
v -0.5 0.9 0.7
v -0.4 0.9 0.7
v 5.96046e-08 0.9 0.7
v 0.1 0.9 0.7
v -0.5 0.9 0.6
v -0.4 0.9 0.6
v 5.96046e-08 0.9 0.6
v 0.1 0.9 0.6
v -0.5 0.9 0.5
v -0.4 0.9 0.5
v 5.96046e-08 0.9 0.5
v 0.1 0.9 0.5
v -0.5 0.9 0.4
v -0.4 0.9 0.4
v 5.96046e-08 0.9 0.4
v 0.1 0.9 0.4
v -0.6 1 0.7
v -0.5 1 0.7
v 0.1 1 0.7
v 0.2 1 0.7
v -0.6 1 0.6
v -0.5 1 0.6
v 0.1 1 0.6
v 0.2 1 0.6
v -0.6 1 0.5
v -0.5 1 0.5
v 0.1 1 0.5
v 0.2 1 0.5
v -0.6 1 0.4
v -0.5 1 0.4
v 0.1 1 0.4
v 0.2 1 0.4
v -0.3 1.1 0.7
v -0.1 1.1 0.7
v -0.8 1.1 0.6
v -0.7 1.1 0.6
v -0.3 1.1 0.6
v -0.1 1.1 0.6
v 0.3 1.1 0.6
v 0.4 1.1 0.6
v -0.8 1.1 0.5
v -0.7 1.1 0.5
v -0.3 1.1 0.5
v -0.1 1.1 0.5
v 0.3 1.1 0.5
v 0.4 1.1 0.5
v -0.3 1.1 0.4
v -0.1 1.1 0.4
v -0.7 1.2 0.6
v -0.6 1.2 0.6
v 0.2 1.2 0.6
v 0.3 1.2 0.6
v -0.7 1.2 0.5
v -0.6 1.2 0.5
v 0.2 1.2 0.5
v 0.3 1.2 0.5
v -0.6 1.3 0.6
v -0.5 1.3 0.6
v 0.1 1.3 0.6
v 0.2 1.3 0.6
v -0.6 1.3 0.5
v -0.5 1.3 0.5
v 0.1 1.3 0.5
v 0.2 1.3 0.5
v -0.5 1.4 0.6
v 0.1 1.4 0.6
v -0.5 1.4 0.5
v 0.1 1.4 0.5

# faces
f 3/2/1 2/2/1 1/2/1
f 4/2/1 2/2/1 3/2/1
f 7/2/1 6/2/1 5/2/1
f 8/2/1 6/2/1 7/2/1
f 11/2/1 10/2/1 9/2/1
f 12/2/1 10/2/1 11/2/1
f 15/2/1 14/2/1 13/2/1
f 16/2/1 14/2/1 15/2/1
f 21/1/1 18/1/1 17/1/1
f 22/1/1 18/1/1 21/1/1
f 23/1/1 20/1/1 19/1/1
f 24/1/1 20/1/1 23/1/1
f 27/2/1 26/2/1 25/2/1
f 28/2/1 26/2/1 27/2/1
f 31/2/1 30/2/1 29/2/1
f 32/2/1 30/2/1 31/2/1
f 35/2/1 34/2/1 33/2/1
f 36/2/1 34/2/1 35/2/1
f 41/1/1 38/1/1 37/1/1
f 42/1/1 38/1/1 41/1/1
f 43/1/1 40/1/1 39/1/1
f 44/1/1 40/1/1 43/1/1
f 49/1/1 46/1/1 45/1/1
f 50/1/1 46/1/1 49/1/1
f 51/1/1 48/1/1 47/1/1
f 52/1/1 48/1/1 51/1/1
f 57/1/1 54/1/1 53/1/1
f 58/1/1 54/1/1 57/1/1
f 59/1/1 56/1/1 55/1/1
f 60/1/1 56/1/1 59/1/1
f 61/1/2 62/1/2 65/1/2
f 65/1/2 62/1/2 66/1/2
f 63/1/2 64/1/2 67/1/2
f 67/1/2 64/1/2 68/1/2
f 69/1/2 70/1/2 73/1/2
f 73/1/2 70/1/2 74/1/2
f 71/1/2 72/1/2 75/1/2
f 75/1/2 72/1/2 76/1/2
f 77/1/2 78/1/2 81/1/2
f 81/1/2 78/1/2 82/1/2
f 79/1/2 80/1/2 83/1/2
f 83/1/2 80/1/2 84/1/2
f 85/2/2 86/2/2 87/2/2
f 87/2/2 86/2/2 88/2/2
f 89/2/2 90/2/2 91/2/2
f 91/2/2 90/2/2 92/2/2
f 93/2/2 94/2/2 95/2/2
f 95/2/2 94/2/2 96/2/2
f 97/1/2 98/1/2 101/1/2
f 101/1/2 98/1/2 102/1/2
f 99/1/2 100/1/2 103/1/2
f 103/1/2 100/1/2 104/1/2
f 105/2/2 106/2/2 107/2/2
f 107/2/2 106/2/2 108/2/2
f 109/2/2 110/2/2 111/2/2
f 111/2/2 110/2/2 112/2/2
f 113/2/2 114/2/2 115/2/2
f 115/2/2 114/2/2 116/2/2
f 117/2/2 118/2/2 119/2/2
f 119/2/2 118/2/2 120/2/2
f 123/1/3 122/1/3 121/1/3
f 124/1/3 122/1/3 123/1/3
f 125/1/3 123/1/3 121/1/3
f 126/1/3 123/1/3 125/1/3
f 127/1/3 125/1/3 121/1/3
f 129/1/3 127/1/3 121/1/3
f 129/1/3 128/1/3 127/1/3
f 130/1/3 128/1/3 129/1/3
f 131/1/3 129/1/3 121/1/3
f 133/1/3 132/1/3 131/1/3
f 135/1/3 131/1/3 121/1/3
f 135/1/3 134/1/3 133/1/3
f 135/1/3 133/1/3 131/1/3
f 136/1/3 134/1/3 135/1/3
f 140/2/3 138/2/3 137/2/3
f 141/2/3 138/2/3 140/2/3
f 144/2/3 140/2/3 139/2/3
f 144/2/3 142/2/3 141/2/3
f 144/2/3 141/2/3 140/2/3
f 145/2/3 142/2/3 144/2/3
f 146/2/3 142/2/3 145/2/3
f 147/2/3 142/2/3 146/2/3
f 150/2/3 144/2/3 143/2/3
f 150/2/3 145/2/3 144/2/3
f 152/2/3 147/2/3 146/2/3
f 152/2/3 148/2/3 147/2/3
f 153/2/3 148/2/3 152/2/3
f 156/2/3 152/2/3 151/2/3
f 156/2/3 154/2/3 153/2/3
f 156/2/3 153/2/3 152/2/3
f 157/2/3 156/2/3 155/2/3
f 158/2/3 154/2/3 156/2/3
f 158/2/3 156/2/3 157/2/3
f 160/2/3 154/2/3 158/2/3
f 161/2/3 160/2/3 159/2/3
f 162/2/3 160/2/3 161/2/3
f 163/2/3 150/2/3 149/2/3
f 164/2/3 145/2/3 150/2/3
f 164/2/3 150/2/3 163/2/3
f 165/2/3 160/2/3 162/2/3
f 166/2/3 160/2/3 165/2/3
f 167/2/3 154/2/3 160/2/3
f 167/2/3 160/2/3 166/2/3
f 168/2/3 154/2/3 167/2/3
f 169/2/3 145/2/3 164/2/3
f 170/2/3 145/2/3 169/2/3
f 171/2/3 145/2/3 170/2/3
f 172/2/3 167/2/3 166/2/3
f 173/2/3 167/2/3 172/2/3
f 174/2/3 167/2/3 173/2/3
f 175/2/3 171/2/3 170/2/3
f 175/2/3 173/2/3 172/2/3
f 175/2/3 172/2/3 171/2/3
f 176/2/3 173/2/3 175/2/3
f 177/2/3 173/2/3 176/2/3
f 178/2/3 173/2/3 177/2/3
f 179/2/3 177/2/3 176/2/3
f 180/2/3 177/2/3 179/2/3
f 181/2/4 182/2/4 184/2/4
f 184/2/4 182/2/4 185/2/4
f 183/2/4 184/2/4 188/2/4
f 185/2/4 186/2/4 188/2/4
f 184/2/4 185/2/4 188/2/4
f 188/2/4 186/2/4 189/2/4
f 189/2/4 186/2/4 190/2/4
f 190/2/4 186/2/4 191/2/4
f 187/2/4 188/2/4 194/2/4
f 188/2/4 189/2/4 194/2/4
f 190/2/4 191/2/4 196/2/4
f 191/2/4 192/2/4 196/2/4
f 196/2/4 192/2/4 197/2/4
f 195/2/4 196/2/4 200/2/4
f 197/2/4 198/2/4 200/2/4
f 196/2/4 197/2/4 200/2/4
f 199/2/4 200/2/4 201/2/4
f 200/2/4 198/2/4 202/2/4
f 201/2/4 200/2/4 202/2/4
f 202/2/4 198/2/4 204/2/4
f 203/2/4 204/2/4 205/2/4
f 205/2/4 204/2/4 206/2/4
f 193/2/4 194/2/4 207/2/4
f 194/2/4 189/2/4 208/2/4
f 207/2/4 194/2/4 208/2/4
f 206/2/4 204/2/4 209/2/4
f 209/2/4 204/2/4 210/2/4
f 204/2/4 198/2/4 211/2/4
f 210/2/4 204/2/4 211/2/4
f 211/2/4 198/2/4 212/2/4
f 208/2/4 189/2/4 213/2/4
f 213/2/4 189/2/4 214/2/4
f 214/2/4 189/2/4 215/2/4
f 210/2/4 211/2/4 216/2/4
f 216/2/4 211/2/4 217/2/4
f 217/2/4 211/2/4 218/2/4
f 214/2/4 215/2/4 219/2/4
f 216/2/4 217/2/4 219/2/4
f 215/2/4 216/2/4 219/2/4
f 219/2/4 217/2/4 220/2/4
f 220/2/4 217/2/4 221/2/4
f 221/2/4 217/2/4 222/2/4
f 220/2/4 221/2/4 223/2/4
f 223/2/4 221/2/4 224/2/4
f 225/1/4 226/1/4 227/1/4
f 227/1/4 226/1/4 228/1/4
f 225/1/4 227/1/4 229/1/4
f 229/1/4 227/1/4 230/1/4
f 225/1/4 229/1/4 231/1/4
f 225/1/4 231/1/4 233/1/4
f 231/1/4 232/1/4 233/1/4
f 233/1/4 232/1/4 234/1/4
f 225/1/4 233/1/4 235/1/4
f 235/1/4 236/1/4 237/1/4
f 225/1/4 235/1/4 239/1/4
f 237/1/4 238/1/4 239/1/4
f 235/1/4 237/1/4 239/1/4
f 239/1/4 238/1/4 240/1/4
f 243/2/5 242/2/5 241/2/5
f 244/2/5 242/2/5 243/2/5
f 249/2/5 246/2/5 245/2/5
f 250/2/5 246/2/5 249/2/5
f 251/2/5 248/2/5 247/2/5
f 252/2/5 248/2/5 251/2/5
f 257/2/5 254/2/5 253/2/5
f 258/2/5 254/2/5 257/2/5
f 259/2/5 256/2/5 255/2/5
f 260/2/5 256/2/5 259/2/5
f 265/2/5 262/2/5 261/2/5
f 266/2/5 262/2/5 265/2/5
f 267/2/5 264/2/5 263/2/5
f 268/2/5 264/2/5 267/2/5
f 271/1/5 270/1/5 269/1/5
f 272/1/5 270/1/5 271/1/5
f 275/1/5 274/1/5 273/1/5
f 276/1/5 274/1/5 275/1/5
f 277/1/6 278/1/6 281/1/6
f 281/1/6 278/1/6 282/1/6
f 279/1/6 280/1/6 283/1/6
f 283/1/6 280/1/6 284/1/6
f 285/1/6 286/1/6 289/1/6
f 289/1/6 286/1/6 290/1/6
f 287/1/6 288/1/6 291/1/6
f 291/1/6 288/1/6 292/1/6
f 293/1/6 294/1/6 297/1/6
f 297/1/6 294/1/6 298/1/6
f 295/1/6 296/1/6 299/1/6
f 299/1/6 296/1/6 300/1/6
f 301/1/6 302/1/6 305/1/6
f 305/1/6 302/1/6 306/1/6
f 303/1/6 304/1/6 307/1/6
f 307/1/6 304/1/6 308/1/6
f 309/1/6 310/1/6 313/1/6
f 313/1/6 310/1/6 314/1/6
f 311/1/6 312/1/6 315/1/6
f 315/1/6 312/1/6 316/1/6
f 317/1/6 318/1/6 321/1/6
f 321/1/6 318/1/6 322/1/6
f 319/1/6 320/1/6 323/1/6
f 323/1/6 320/1/6 324/1/6
f 325/1/6 326/1/6 329/1/6
f 329/1/6 326/1/6 330/1/6
f 327/2/6 328/2/6 333/2/6
f 333/2/6 328/2/6 334/2/6
f 331/2/6 332/2/6 337/2/6
f 337/2/6 332/2/6 338/2/6
f 335/1/6 336/1/6 339/1/6
f 339/1/6 336/1/6 340/1/6
f 341/2/6 342/2/6 345/2/6
f 345/2/6 342/2/6 346/2/6
f 343/2/6 344/2/6 347/2/6
f 347/2/6 344/2/6 348/2/6
f 349/2/6 350/2/6 353/2/6
f 353/2/6 350/2/6 354/2/6
f 351/2/6 352/2/6 355/2/6
f 355/2/6 352/2/6 356/2/6
f 357/2/6 358/2/6 359/2/6
f 359/2/6 358/2/6 360/2/6
